<svg xmlns="http://www.w3.org/2000/svg" width="200" height="220" viewBox="0 0 200 220">
  <defs>
    <linearGradient id="faceTop" x1="0" y1="0" x2="0.4" y2="1">
      <stop offset="0" stop-color="#3A3A45"></stop><stop offset="1" stop-color="#24242C"></stop>
    </linearGradient>
    <linearGradient id="faceLeft" x1="0" y1="0" x2="0" y2="1">
      <stop offset="0" stop-color="#191920"></stop><stop offset="1" stop-color="#0E0E12"></stop>
    </linearGradient>
    <linearGradient id="faceRight" x1="1" y1="0" x2="0" y2="1">
      <stop offset="0" stop-color="#101015"></stop><stop offset="1" stop-color="#08080B"></stop>
    </linearGradient>
    <linearGradient id="crk" x1="0" y1="0" x2="0" y2="1">
      <stop offset="0" stop-color="#FFE9B0"></stop><stop offset="0.4" stop-color="#FF8A2A"></stop><stop offset="1" stop-color="#D84A00"></stop>
    </linearGradient>
    <filter id="glow" x="-80%" y="-80%" width="260%" height="260%">
      <feGaussianBlur stdDeviation="4.5" result="b"></feGaussianBlur>
      <feMerge><feMergeNode in="b"></feMergeNode><feMergeNode in="SourceGraphic"></feMergeNode></feMerge>
    </filter>
    <clipPath id="cube"><polygon points="100,18 176,60 176,150 100,192 24,150 24,60"></polygon></clipPath>
  </defs>
  <polygon points="100,18 176,60 100,105 24,60" fill="url(#faceTop)"></polygon>
  <polygon points="24,60 100,105 100,192 24,150" fill="url(#faceLeft)"></polygon>
  <polygon points="176,60 100,105 100,192 176,150" fill="url(#faceRight)"></polygon>
  <g fill="none" stroke-linejoin="round" stroke-linecap="round">
    <polygon points="100,18 176,60 176,150 100,192 24,150 24,60" stroke="#4A4A57" stroke-width="1.5"></polygon>
    <polyline points="24,60 100,105 176,60" stroke="#54545F" stroke-width="1.4" stroke-opacity="0.9"></polyline>
    <line x1="100" y1="105" x2="100" y2="192" stroke="#000" stroke-width="1.4" stroke-opacity="0.55"></line>
    <polyline points="100,18 176,60" stroke="#6B6B78" stroke-width="1" stroke-opacity="0.7"></polyline>
  </g>
  <g clip-path="url(#cube)">
    <path d="M100,30 L92,50 L100,70 L90,88 L104,104 L96,124 L108,146 L100,168 L106,186 M100,70 L118,80 L132,92 M90,88 L68,96 L52,102 M108,146 L128,150 L140,158" fill="none" stroke="url(#crk)" stroke-width="6" stroke-linecap="round" stroke-linejoin="round" filter="url(#glow)" opacity="0.85"></path>
    <path d="M100,30 L92,50 L100,70 L90,88 L104,104 L96,124 L108,146 L100,168 L106,186" fill="none" stroke="url(#crk)" stroke-width="4" stroke-linecap="round" stroke-linejoin="round"></path>
    <path d="M100,70 L118,80 L132,92 M90,88 L68,96 L52,102 M108,146 L128,150 L140,158" fill="none" stroke="url(#crk)" stroke-width="2.6" stroke-linecap="round" stroke-linejoin="round"></path>
    <path d="M104,104 L116,100 L124,95 M96,124 L82,132 M118,80 L122,68" fill="none" stroke="url(#crk)" stroke-width="1.3" stroke-linecap="round" stroke-linejoin="round" opacity="0.8"></path>
    <path d="M100,30 L92,50 L100,70 L90,88 L104,104 L96,124 L108,146 L100,168 L106,186" fill="none" stroke="#FFF2D0" stroke-width="1.5" stroke-linecap="round" stroke-linejoin="round"></path>
    <path d="M100,70 L118,80 L132,92 M90,88 L68,96 L52,102 M108,146 L128,150 L140,158" fill="none" stroke="#FFF2D0" stroke-width="0.9" stroke-linecap="round" stroke-linejoin="round"></path>
  </g>
</svg>